<?xml version="1.0" encoding="UTF-8"?>
<svg id="Layer_1" data-name="Layer 1" xmlns="http://www.w3.org/2000/svg" viewBox="0 0 74.79 65.55">
  <defs>
    <style>
      .cls-1 {
        fill: #315640;
      }

      .cls-2 {
        fill: #52af79;
      }
    </style>
  </defs>
  <rect width="74.79" height="65.55" fill="#ffffff"/>
  <polygon class="cls-1" points="74.79 0 59.14 0 40.17 26.54 40.17 3.81 27 3.81 11.66 0 11.66 3.81 3.04 3.81 3.04 59.57 11.66 59.57 11.66 65.55 35.71 62.16 35.71 59.57 40.17 59.57 40.17 39.01 59.14 65.55 74.79 65.55 51.91 32.78 74.79 0"/>
  <path class="cls-2" d="M40.17,32.75s7.31,0,7.31-15.08C47.48,6.07,40.17,0,26.48,0H0v65.55h26.48c13.69,0,21-6.07,21-17.68,0-15.1-7.31-15.12-7.31-15.12ZM7.21,5.98h18.55c4.8,0,8.4.97,10.81,2.9,2.04,1.65,3.22,4.02,3.52,7.11.06.54.09,1.1.09,1.69s-.03,1.17-.09,1.71c-.3,3.13-1.48,5.5-3.52,7.12-2.4,1.91-6.01,2.86-10.81,2.86H7.21V5.98ZM40.08,49.56c-.3,3.09-1.48,5.46-3.52,7.11-2.4,1.93-6.01,2.9-10.81,2.9H7.21v-23.39h18.55c4.8,0,8.4.95,10.81,2.86,2.04,1.62,3.22,3.99,3.52,7.12.06.55.09,1.12.09,1.71s-.03,1.15-.09,1.69Z"/>
</svg>